<svg xmlns="http://www.w3.org/2000/svg" width="64" height="64" viewBox="0 0 64 64"><path stroke="#449FDB" d="M0 0"/><path d="M64 32c0-17.673-14.327-32-32-32s-32 14.327-32 32 14.327 32 32 32 32-14.327 32-32zm-58 0c0-14.359 11.641-26 26-26s26 11.641 26 26-11.641 26-26 26-26-11.641-26-26zm28.828 18.828l16-16c1.562-1.562 1.562-4.095 0-5.657s-4.095-1.562-5.657 0l-9.172 9.171v-22.343c0-2.209-1.791-4-4-4s-4 1.791-4 4v22.343l-9.172-9.172c-1.562-1.562-4.095-1.562-5.657 0-.781.781-1.171 1.805-1.171 2.828s.39 2.047 1.171 2.828l16 16c1.562 1.562 4.095 1.562 5.657 0z" fill="#999"/></svg>